<?xml version="1.0" encoding="UTF-8" standalone="no"?>
<svg
   xmlns:dc="http://purl.org/dc/elements/1.1/"
   xmlns:cc="http://creativecommons.org/ns#"
   xmlns:rdf="http://www.w3.org/1999/02/22-rdf-syntax-ns#"
   xmlns:svg="http://www.w3.org/2000/svg"
   xmlns="http://www.w3.org/2000/svg"
   xmlns:xlink="http://www.w3.org/1999/xlink"
   width="150mm"
   height="170mm"
   viewBox="0 0 150 170"
   version="1.1"
   id="svg8">
  <defs
     id="defs2">
    <linearGradient
       id="linearGradient963">
      <stop
         style="stop-color:#ceffff;stop-opacity:1"
         offset="0"
         id="stop959" />
      <stop
         style="stop-color:#f1eeec;stop-opacity:0.63562751"
         offset="1"
         id="stop961" />
    </linearGradient>
    <linearGradient
       xlink:href="#linearGradient963"
       id="linearGradient967"
       gradientUnits="userSpaceOnUse"
       x1="2.8571429"
       y1="510.28571"
       x2="500.57144"
       y2="1.7142825" />
    <linearGradient
       xlink:href="#linearGradient963"
       id="linearGradient1139"
       x1="-0.00050000002"
       y1="256"
       x2="511.99976"
       y2="256"
       gradientUnits="userSpaceOnUse" />
    <linearGradient
       xlink:href="#linearGradient963"
       id="linearGradient1159"
       gradientUnits="userSpaceOnUse"
       x1="-0.00050000002"
       y1="256"
       x2="511.99976"
       y2="256" />
    <linearGradient
       xlink:href="#linearGradient963"
       id="linearGradient1161"
       gradientUnits="userSpaceOnUse"
       x1="-0.00050000002"
       y1="256"
       x2="511.99976"
       y2="256" />
    <linearGradient
       xlink:href="#linearGradient963"
       id="linearGradient1163"
       gradientUnits="userSpaceOnUse"
       x1="-0.00050000002"
       y1="256"
       x2="511.99976"
       y2="256" />
    <linearGradient
       xlink:href="#linearGradient963"
       id="linearGradient1165"
       gradientUnits="userSpaceOnUse"
       x1="-0.00050000002"
       y1="256"
       x2="511.99976"
       y2="256" />
    <linearGradient
       xlink:href="#linearGradient963"
       id="linearGradient1167"
       gradientUnits="userSpaceOnUse"
       x1="-0.00050000002"
       y1="256"
       x2="511.99976"
       y2="256" />
    <linearGradient
       xlink:href="#linearGradient963"
       id="linearGradient1169"
       gradientUnits="userSpaceOnUse"
       x1="-0.00050000002"
       y1="256"
       x2="511.99976"
       y2="256" />
    <linearGradient
       xlink:href="#linearGradient963"
       id="linearGradient1171"
       gradientUnits="userSpaceOnUse"
       x1="-0.00050000002"
       y1="256"
       x2="511.99976"
       y2="256" />
    <linearGradient
       xlink:href="#linearGradient963"
       id="linearGradient1173"
       gradientUnits="userSpaceOnUse"
       x1="-0.00050000002"
       y1="256"
       x2="511.99976"
       y2="256" />
    <linearGradient
       xlink:href="#linearGradient963"
       id="linearGradient1175"
       gradientUnits="userSpaceOnUse"
       x1="-0.00050000002"
       y1="256"
       x2="511.99976"
       y2="256" />
    <linearGradient
       xlink:href="#linearGradient963"
       id="linearGradient1177"
       gradientUnits="userSpaceOnUse"
       x1="-0.00050000002"
       y1="256"
       x2="511.99976"
       y2="256" />
    <linearGradient
       xlink:href="#linearGradient963"
       id="linearGradient1179"
       gradientUnits="userSpaceOnUse"
       x1="-0.00050000002"
       y1="256"
       x2="511.99976"
       y2="256" />
    <linearGradient
       xlink:href="#linearGradient963"
       id="linearGradient1181"
       gradientUnits="userSpaceOnUse"
       x1="-0.00050000002"
       y1="256"
       x2="511.99976"
       y2="256" />
    <linearGradient
       xlink:href="#linearGradient963"
       id="linearGradient1183"
       gradientUnits="userSpaceOnUse"
       x1="-0.00050000002"
       y1="256"
       x2="511.99976"
       y2="256" />
    <linearGradient
       xlink:href="#linearGradient963"
       id="linearGradient1185"
       gradientUnits="userSpaceOnUse"
       x1="-0.00050000002"
       y1="256"
       x2="511.99976"
       y2="256" />
    <linearGradient
       xlink:href="#linearGradient963"
       id="linearGradient1187"
       gradientUnits="userSpaceOnUse"
       x1="-0.00050000002"
       y1="256"
       x2="511.99976"
       y2="256" />
    <linearGradient
       xlink:href="#linearGradient963"
       id="linearGradient1189"
       gradientUnits="userSpaceOnUse"
       x1="-0.00050000002"
       y1="256"
       x2="511.99976"
       y2="256" />
    <linearGradient
       xlink:href="#linearGradient963"
       id="linearGradient1191"
       gradientUnits="userSpaceOnUse"
       x1="-0.00050000002"
       y1="256"
       x2="511.99976"
       y2="256" />
    <linearGradient
       xlink:href="#linearGradient963"
       id="linearGradient1193"
       gradientUnits="userSpaceOnUse"
       x1="-0.00050000002"
       y1="256"
       x2="511.99976"
       y2="256" />
    <linearGradient
       xlink:href="#linearGradient963"
       id="linearGradient1195"
       gradientUnits="userSpaceOnUse"
       x1="-0.00050000002"
       y1="256"
       x2="511.99976"
       y2="256" />
    <linearGradient
       xlink:href="#linearGradient963"
       id="linearGradient1197"
       gradientUnits="userSpaceOnUse"
       x1="-0.00050000002"
       y1="256"
       x2="511.99976"
       y2="256" />
    <linearGradient
       xlink:href="#linearGradient963"
       id="linearGradient1199"
       gradientUnits="userSpaceOnUse"
       x1="-0.00050000002"
       y1="256"
       x2="511.99976"
       y2="256" />
    <linearGradient
       xlink:href="#linearGradient963"
       id="linearGradient1401"
       x1="24.164724"
       y1="230.39999"
       x2="436.63657"
       y2="230.39999"
       gradientUnits="userSpaceOnUse" />
    <linearGradient
       xlink:href="#linearGradient963"
       id="linearGradient1421"
       gradientUnits="userSpaceOnUse"
       x1="24.164724"
       y1="230.39999"
       x2="436.63657"
       y2="230.39999" />
    <linearGradient
       xlink:href="#linearGradient963"
       id="linearGradient1423"
       gradientUnits="userSpaceOnUse"
       x1="24.164724"
       y1="230.39999"
       x2="436.63657"
       y2="230.39999" />
    <linearGradient
       xlink:href="#linearGradient963"
       id="linearGradient1425"
       gradientUnits="userSpaceOnUse"
       x1="24.164724"
       y1="230.39999"
       x2="436.63657"
       y2="230.39999" />
    <linearGradient
       xlink:href="#linearGradient963"
       id="linearGradient1427"
       gradientUnits="userSpaceOnUse"
       x1="24.164724"
       y1="230.39999"
       x2="436.63657"
       y2="230.39999" />
    <linearGradient
       xlink:href="#linearGradient963"
       id="linearGradient1429"
       gradientUnits="userSpaceOnUse"
       x1="24.164724"
       y1="230.39999"
       x2="436.63657"
       y2="230.39999" />
    <linearGradient
       xlink:href="#linearGradient963"
       id="linearGradient1431"
       gradientUnits="userSpaceOnUse"
       x1="24.164724"
       y1="230.39999"
       x2="436.63657"
       y2="230.39999" />
    <linearGradient
       xlink:href="#linearGradient963"
       id="linearGradient1433"
       gradientUnits="userSpaceOnUse"
       x1="24.164724"
       y1="230.39999"
       x2="436.63657"
       y2="230.39999" />
    <linearGradient
       xlink:href="#linearGradient963"
       id="linearGradient1435"
       gradientUnits="userSpaceOnUse"
       x1="24.164724"
       y1="230.39999"
       x2="436.63657"
       y2="230.39999" />
    <linearGradient
       xlink:href="#linearGradient963"
       id="linearGradient1437"
       gradientUnits="userSpaceOnUse"
       x1="24.164724"
       y1="230.39999"
       x2="436.63657"
       y2="230.39999" />
    <linearGradient
       xlink:href="#linearGradient963"
       id="linearGradient1439"
       gradientUnits="userSpaceOnUse"
       x1="24.164724"
       y1="230.39999"
       x2="436.63657"
       y2="230.39999" />
    <linearGradient
       xlink:href="#linearGradient963"
       id="linearGradient1441"
       gradientUnits="userSpaceOnUse"
       x1="24.164724"
       y1="230.39999"
       x2="436.63657"
       y2="230.39999" />
    <linearGradient
       xlink:href="#linearGradient963"
       id="linearGradient1443"
       gradientUnits="userSpaceOnUse"
       x1="24.164724"
       y1="230.39999"
       x2="436.63657"
       y2="230.39999" />
    <linearGradient
       xlink:href="#linearGradient963"
       id="linearGradient1445"
       gradientUnits="userSpaceOnUse"
       x1="24.164724"
       y1="230.39999"
       x2="436.63657"
       y2="230.39999" />
    <linearGradient
       xlink:href="#linearGradient963"
       id="linearGradient1447"
       gradientUnits="userSpaceOnUse"
       x1="24.164724"
       y1="230.39999"
       x2="436.63657"
       y2="230.39999" />
    <linearGradient
       xlink:href="#linearGradient963"
       id="linearGradient1449"
       gradientUnits="userSpaceOnUse"
       x1="24.164724"
       y1="230.39999"
       x2="436.63657"
       y2="230.39999" />
    <linearGradient
       xlink:href="#linearGradient963"
       id="linearGradient1451"
       gradientUnits="userSpaceOnUse"
       x1="24.164724"
       y1="230.39999"
       x2="436.63657"
       y2="230.39999" />
    <linearGradient
       xlink:href="#linearGradient963"
       id="linearGradient1453"
       gradientUnits="userSpaceOnUse"
       x1="24.164724"
       y1="230.39999"
       x2="436.63657"
       y2="230.39999" />
    <linearGradient
       xlink:href="#linearGradient963"
       id="linearGradient1455"
       gradientUnits="userSpaceOnUse"
       x1="24.164724"
       y1="230.39999"
       x2="436.63657"
       y2="230.39999" />
    <linearGradient
       xlink:href="#linearGradient963"
       id="linearGradient1457"
       gradientUnits="userSpaceOnUse"
       x1="24.164724"
       y1="230.39999"
       x2="436.63657"
       y2="230.39999" />
    <linearGradient
       xlink:href="#linearGradient963"
       id="linearGradient1459"
       gradientUnits="userSpaceOnUse"
       x1="24.164724"
       y1="230.39999"
       x2="436.63657"
       y2="230.39999" />
    <linearGradient
       xlink:href="#linearGradient963"
       id="linearGradient1461"
       gradientUnits="userSpaceOnUse"
       x1="24.164724"
       y1="230.39999"
       x2="436.63657"
       y2="230.39999" />
    <clipPath
       clipPathUnits="userSpaceOnUse"
       id="clipPath1507">
      <use
         x="0"
         y="0"
         xlink:href="#g1503"
         id="use1509"
         width="100%"
         height="100%" />
    </clipPath>
  </defs>
  <metadata
     id="metadata5">
    <rdf:RDF>
      <cc:Work
         rdf:about="">
        <dc:format>image/svg+xml</dc:format>
        <dc:type
           rdf:resource="http://purl.org/dc/dcmitype/StillImage" />
        <dc:title></dc:title>
      </cc:Work>
    </rdf:RDF>
  </metadata>
  <g
     id="layer1"
     style="display:inline">
    <g
       id="g71"
       transform="matrix(0.26458333,0,0,0.26458333,41.123808,60.02262)"
       style="display:none;fill:url(#linearGradient967);fill-opacity:1">
      <g
         id="g14"
         style="fill:url(#linearGradient967);fill-opacity:1">
	<g
   id="g12"
   style="fill:url(#linearGradient967);fill-opacity:1">
		<path
   d="m 500.6,212.6 -59.9,-14.7 c -3.3,-10.5 -7.5,-20.7 -12.6,-30.6 l 30.6,-51 c 3.6,-6 2.7,-13.5 -2.1,-18.3 L 414,55.4 c -4.8,-4.8 -12.3,-5.7 -18.3,-2.1 l -51,30.6 C 334.8,78.8 324.6,74.6 314.1,71.3 L 299.7,11.4 C 297.9,4.8 291.9,0 285,0 h -60 c -6.9,0 -12.9,4.8 -14.7,11.4 l -14.4,59.9 c -10.5,3.3 -20.7,7.5 -30.6,12.6 l -51,-30.6 c -6,-3.6 -13.5,-2.7 -18.3,2.1 L 53.4,98 c -4.8,4.8 -5.7,12.3 -2.1,18.3 l 30.6,51 c -5.1,9.9 -9.3,20.1 -12.6,30.6 L 11.4,212.6 C 4.8,214.1 0,220.1 0,227 v 60 c 0,6.9 4.8,12.9 11.4,14.4 l 57.9,14.7 c 3.3,10.5 7.5,20.7 12.6,30.6 l -30.6,51 c -3.6,6 -2.7,13.5 2.1,18.3 L 96,458.6 c 4.8,4.8 12.3,5.7 18.3,2.1 l 51,-30.6 c 9.9,5.1 20.1,9.3 30.6,12.6 l 14.4,57.9 c 1.8,6.6 7.8,11.4 14.7,11.4 h 60 c 6.9,0 12.9,-4.8 14.7,-11.4 l 14.4,-57.9 c 10.5,-3.3 20.7,-7.5 30.6,-12.6 l 51,30.6 c 6,3.6 13.5,2.7 18.3,-2.1 L 456.6,416 c 4.8,-4.8 5.7,-12.3 2.1,-18.3 l -30.6,-51 c 5.1,-9.9 9.3,-20.1 12.6,-30.6 l 59.9,-14.7 c 6.6,-1.5 11.4,-7.5 11.4,-14.4 v -60 c 0,-6.9 -4.8,-12.9 -11.4,-14.4 z M 255,332 c -41.4,0 -75,-33.6 -75,-75 0,-41.4 33.6,-75 75,-75 41.4,0 75,33.6 75,75 0,41.4 -33.6,75 -75,75 z"
   id="path10"
   style="fill:url(#linearGradient967);fill-opacity:1" />

	</g>

</g>
      <g
         id="g16"
         style="fill:url(#linearGradient967);fill-opacity:1">
</g>
      <g
         id="g18"
         style="fill:url(#linearGradient967);fill-opacity:1">
</g>
      <g
         id="g20"
         style="fill:url(#linearGradient967);fill-opacity:1">
</g>
      <g
         id="g22"
         style="fill:url(#linearGradient967);fill-opacity:1">
</g>
      <g
         id="g24"
         style="fill:url(#linearGradient967);fill-opacity:1">
</g>
      <g
         id="g26"
         style="fill:url(#linearGradient967);fill-opacity:1">
</g>
      <g
         id="g28"
         style="fill:url(#linearGradient967);fill-opacity:1">
</g>
      <g
         id="g30"
         style="fill:url(#linearGradient967);fill-opacity:1">
</g>
      <g
         id="g32"
         style="fill:url(#linearGradient967);fill-opacity:1">
</g>
      <g
         id="g34"
         style="fill:url(#linearGradient967);fill-opacity:1">
</g>
      <g
         id="g36"
         style="fill:url(#linearGradient967);fill-opacity:1">
</g>
      <g
         id="g38"
         style="fill:url(#linearGradient967);fill-opacity:1">
</g>
      <g
         id="g40"
         style="fill:url(#linearGradient967);fill-opacity:1">
</g>
      <g
         id="g42"
         style="fill:url(#linearGradient967);fill-opacity:1">
</g>
      <g
         id="g44"
         style="fill:url(#linearGradient967);fill-opacity:1">
</g>
    </g>
    <g
       id="g1131"
       transform="matrix(0.26458333,0,0,0.26458333,7.2667667,17.266668)"
       style="display:inline;fill:url(#linearGradient1139);fill-opacity:1">
      <g
         id="g1065"
         style="fill:url(#linearGradient1163);fill-opacity:1">
	<g
   id="g1063"
   style="fill:url(#linearGradient1161);fill-opacity:1">
		<path
   d="M 508.177,245.995 C 503.607,240.897 393.682,121 256,121 118.318,121 8.394,240.897 3.823,245.995 c -5.098,5.698 -5.098,14.312 0,20.01 C 8.394,271.103 118.32,391 256,391 c 137.68,0 247.606,-119.897 252.177,-124.995 5.097,-5.698 5.097,-14.312 0,-20.01 z M 256,361 c -57.891,0 -105,-47.109 -105,-105 0,-57.891 47.109,-105 105,-105 57.891,0 105,47.109 105,105 0,57.891 -47.109,105 -105,105 z"
   id="path1061"
   style="fill:url(#linearGradient1159);fill-opacity:1" />

	</g>

</g>
      <g
         id="g1071"
         style="fill:url(#linearGradient1169);fill-opacity:1">
	<g
   id="g1069"
   style="fill:url(#linearGradient1167);fill-opacity:1">
		<path
   d="m 271,226 c 0,-15.09 7.491,-28.365 18.887,-36.53 C 279.661,184.235 268.255,181 256,181 c -41.353,0 -75,33.647 -75,75 0,41.353 33.647,75 75,75 37.024,0 67.668,-27.034 73.722,-62.358 C 299.516,278.367 271,255.522 271,226 Z"
   id="path1067"
   style="fill:url(#linearGradient1165);fill-opacity:1" />

	</g>

</g>
      <g
         id="g1073"
         style="fill:url(#linearGradient1171);fill-opacity:1">
</g>
      <g
         id="g1075"
         style="fill:url(#linearGradient1173);fill-opacity:1">
</g>
      <g
         id="g1077"
         style="fill:url(#linearGradient1175);fill-opacity:1">
</g>
      <g
         id="g1079"
         style="fill:url(#linearGradient1177);fill-opacity:1">
</g>
      <g
         id="g1081"
         style="fill:url(#linearGradient1179);fill-opacity:1">
</g>
      <g
         id="g1083"
         style="fill:url(#linearGradient1181);fill-opacity:1">
</g>
      <g
         id="g1085"
         style="fill:url(#linearGradient1183);fill-opacity:1">
</g>
      <g
         id="g1087"
         style="fill:url(#linearGradient1185);fill-opacity:1">
</g>
      <g
         id="g1089"
         style="fill:url(#linearGradient1187);fill-opacity:1">
</g>
      <g
         id="g1091"
         style="fill:url(#linearGradient1189);fill-opacity:1">
</g>
      <g
         id="g1093"
         style="fill:url(#linearGradient1191);fill-opacity:1">
</g>
      <g
         id="g1095"
         style="fill:url(#linearGradient1193);fill-opacity:1">
</g>
      <g
         id="g1097"
         style="fill:url(#linearGradient1195);fill-opacity:1">
</g>
      <g
         id="g1099"
         style="fill:url(#linearGradient1197);fill-opacity:1">
</g>
      <g
         id="g1101"
         style="fill:url(#linearGradient1199);fill-opacity:1">
</g>
    </g>
    <g
       id="g1505"
       clip-path="url(#clipPath1507)"
       transform="translate(-38.041083,-47.797059)"
       style="display:none">
      <g
         id="g1503">
        <g
           id="g1393"
           transform="matrix(0.26458333,0,0,0.26458333,52.080911,71.83706)"
           style="fill:url(#linearGradient1401);fill-opacity:1">
          <g
             id="g1327"
             style="fill:url(#linearGradient1425);fill-opacity:1">
	<g
   id="g1325"
   style="fill:url(#linearGradient1423);fill-opacity:1">
		<path
   d="m 230.432,0 c -65.829,0 -119.641,53.812 -119.641,119.641 0,65.829 53.812,119.641 119.641,119.641 65.829,0 119.641,-53.812 119.641,-119.641 C 350.073,53.812 296.261,0 230.432,0 Z"
   id="path1323"
   style="fill:url(#linearGradient1421);fill-opacity:1" />

	</g>

</g>
          <g
             id="g1333"
             style="fill:url(#linearGradient1431);fill-opacity:1">
	<g
   id="g1331"
   style="fill:url(#linearGradient1429);fill-opacity:1">
		<path
   d="m 435.755,334.89 c -3.135,-7.837 -7.314,-15.151 -12.016,-21.943 -24.033,-35.527 -61.126,-59.037 -102.922,-64.784 -5.224,-0.522 -10.971,0.522 -15.151,3.657 -21.943,16.196 -48.065,24.555 -75.233,24.555 -27.168,0 -53.29,-8.359 -75.233,-24.555 -4.18,-3.135 -9.927,-4.702 -15.151,-3.657 -41.796,5.747 -79.412,29.257 -102.922,64.784 -4.702,6.792 -8.882,14.629 -12.016,21.943 -1.567,3.135 -1.045,6.792 0.522,9.927 4.18,7.314 9.404,14.629 14.106,20.898 7.314,9.927 15.151,18.808 24.033,27.167 7.314,7.314 15.673,14.106 24.033,20.898 41.273,30.825 90.906,47.02 142.106,47.02 51.2,0 100.833,-16.196 142.106,-47.02 8.359,-6.269 16.718,-13.584 24.033,-20.898 8.359,-8.359 16.718,-17.241 24.033,-27.167 5.224,-6.792 9.927,-13.584 14.106,-20.898 2.611,-3.135 3.133,-6.793 1.566,-9.927 z"
   id="path1329"
   style="fill:url(#linearGradient1427);fill-opacity:1" />

	</g>

</g>
          <g
             id="g1335"
             style="fill:url(#linearGradient1433);fill-opacity:1">
</g>
          <g
             id="g1337"
             style="fill:url(#linearGradient1435);fill-opacity:1">
</g>
          <g
             id="g1339"
             style="fill:url(#linearGradient1437);fill-opacity:1">
</g>
          <g
             id="g1341"
             style="fill:url(#linearGradient1439);fill-opacity:1">
</g>
          <g
             id="g1343"
             style="fill:url(#linearGradient1441);fill-opacity:1">
</g>
          <g
             id="g1345"
             style="fill:url(#linearGradient1443);fill-opacity:1">
</g>
          <g
             id="g1347"
             style="fill:url(#linearGradient1445);fill-opacity:1">
</g>
          <g
             id="g1349"
             style="fill:url(#linearGradient1447);fill-opacity:1">
</g>
          <g
             id="g1351"
             style="fill:url(#linearGradient1449);fill-opacity:1">
</g>
          <g
             id="g1353"
             style="fill:url(#linearGradient1451);fill-opacity:1">
</g>
          <g
             id="g1355"
             style="fill:url(#linearGradient1453);fill-opacity:1">
</g>
          <g
             id="g1357"
             style="fill:url(#linearGradient1455);fill-opacity:1">
</g>
          <g
             id="g1359"
             style="fill:url(#linearGradient1457);fill-opacity:1">
</g>
          <g
             id="g1361"
             style="fill:url(#linearGradient1459);fill-opacity:1">
</g>
          <g
             id="g1363"
             style="fill:url(#linearGradient1461);fill-opacity:1">
</g>
        </g>
      </g>
    </g>
  </g>
</svg>
