<?xml version="1.0" encoding="UTF-8" standalone="no"?>
<svg
   xmlns:dc="http://purl.org/dc/elements/1.1/"
   xmlns:cc="http://creativecommons.org/ns#"
   xmlns:rdf="http://www.w3.org/1999/02/22-rdf-syntax-ns#"
   xmlns:svg="http://www.w3.org/2000/svg"
   xmlns="http://www.w3.org/2000/svg"
   xmlns:xlink="http://www.w3.org/1999/xlink"
   width="150mm"
   height="170mm"
   viewBox="0 0 150 170"
   version="1.1"
   id="svg8">
  <defs
     id="defs2">
    <linearGradient
       id="linearGradient963">
      <stop
         style="stop-color:#ceffff;stop-opacity:1"
         offset="0"
         id="stop959" />
      <stop
         style="stop-color:#f1eeec;stop-opacity:0.63562751"
         offset="1"
         id="stop961" />
    </linearGradient>
    <linearGradient
       xlink:href="#linearGradient963"
       id="linearGradient967"
       gradientUnits="userSpaceOnUse"
       x1="2.8571429"
       y1="510.28571"
       x2="500.57144"
       y2="1.7142825" />
    <linearGradient
       xlink:href="#linearGradient963"
       id="linearGradient1139"
       x1="-0.00050000002"
       y1="256"
       x2="511.99976"
       y2="256"
       gradientUnits="userSpaceOnUse" />
    <linearGradient
       xlink:href="#linearGradient963"
       id="linearGradient1159"
       gradientUnits="userSpaceOnUse"
       x1="-0.00050000002"
       y1="256"
       x2="511.99976"
       y2="256" />
    <linearGradient
       xlink:href="#linearGradient963"
       id="linearGradient1161"
       gradientUnits="userSpaceOnUse"
       x1="-0.00050000002"
       y1="256"
       x2="511.99976"
       y2="256" />
    <linearGradient
       xlink:href="#linearGradient963"
       id="linearGradient1163"
       gradientUnits="userSpaceOnUse"
       x1="-0.00050000002"
       y1="256"
       x2="511.99976"
       y2="256" />
    <linearGradient
       xlink:href="#linearGradient963"
       id="linearGradient1165"
       gradientUnits="userSpaceOnUse"
       x1="-0.00050000002"
       y1="256"
       x2="511.99976"
       y2="256" />
    <linearGradient
       xlink:href="#linearGradient963"
       id="linearGradient1167"
       gradientUnits="userSpaceOnUse"
       x1="-0.00050000002"
       y1="256"
       x2="511.99976"
       y2="256" />
    <linearGradient
       xlink:href="#linearGradient963"
       id="linearGradient1169"
       gradientUnits="userSpaceOnUse"
       x1="-0.00050000002"
       y1="256"
       x2="511.99976"
       y2="256" />
    <linearGradient
       xlink:href="#linearGradient963"
       id="linearGradient1171"
       gradientUnits="userSpaceOnUse"
       x1="-0.00050000002"
       y1="256"
       x2="511.99976"
       y2="256" />
    <linearGradient
       xlink:href="#linearGradient963"
       id="linearGradient1173"
       gradientUnits="userSpaceOnUse"
       x1="-0.00050000002"
       y1="256"
       x2="511.99976"
       y2="256" />
    <linearGradient
       xlink:href="#linearGradient963"
       id="linearGradient1175"
       gradientUnits="userSpaceOnUse"
       x1="-0.00050000002"
       y1="256"
       x2="511.99976"
       y2="256" />
    <linearGradient
       xlink:href="#linearGradient963"
       id="linearGradient1177"
       gradientUnits="userSpaceOnUse"
       x1="-0.00050000002"
       y1="256"
       x2="511.99976"
       y2="256" />
    <linearGradient
       xlink:href="#linearGradient963"
       id="linearGradient1179"
       gradientUnits="userSpaceOnUse"
       x1="-0.00050000002"
       y1="256"
       x2="511.99976"
       y2="256" />
    <linearGradient
       xlink:href="#linearGradient963"
       id="linearGradient1181"
       gradientUnits="userSpaceOnUse"
       x1="-0.00050000002"
       y1="256"
       x2="511.99976"
       y2="256" />
    <linearGradient
       xlink:href="#linearGradient963"
       id="linearGradient1183"
       gradientUnits="userSpaceOnUse"
       x1="-0.00050000002"
       y1="256"
       x2="511.99976"
       y2="256" />
    <linearGradient
       xlink:href="#linearGradient963"
       id="linearGradient1185"
       gradientUnits="userSpaceOnUse"
       x1="-0.00050000002"
       y1="256"
       x2="511.99976"
       y2="256" />
    <linearGradient
       xlink:href="#linearGradient963"
       id="linearGradient1187"
       gradientUnits="userSpaceOnUse"
       x1="-0.00050000002"
       y1="256"
       x2="511.99976"
       y2="256" />
    <linearGradient
       xlink:href="#linearGradient963"
       id="linearGradient1189"
       gradientUnits="userSpaceOnUse"
       x1="-0.00050000002"
       y1="256"
       x2="511.99976"
       y2="256" />
    <linearGradient
       xlink:href="#linearGradient963"
       id="linearGradient1191"
       gradientUnits="userSpaceOnUse"
       x1="-0.00050000002"
       y1="256"
       x2="511.99976"
       y2="256" />
    <linearGradient
       xlink:href="#linearGradient963"
       id="linearGradient1193"
       gradientUnits="userSpaceOnUse"
       x1="-0.00050000002"
       y1="256"
       x2="511.99976"
       y2="256" />
    <linearGradient
       xlink:href="#linearGradient963"
       id="linearGradient1195"
       gradientUnits="userSpaceOnUse"
       x1="-0.00050000002"
       y1="256"
       x2="511.99976"
       y2="256" />
    <linearGradient
       xlink:href="#linearGradient963"
       id="linearGradient1197"
       gradientUnits="userSpaceOnUse"
       x1="-0.00050000002"
       y1="256"
       x2="511.99976"
       y2="256" />
    <linearGradient
       xlink:href="#linearGradient963"
       id="linearGradient1199"
       gradientUnits="userSpaceOnUse"
       x1="-0.00050000002"
       y1="256"
       x2="511.99976"
       y2="256" />
    <linearGradient
       xlink:href="#linearGradient963"
       id="linearGradient2132"
       gradientUnits="userSpaceOnUse"
       x1="2.8571429"
       y1="510.28571"
       x2="500.57144"
       y2="1.7142825" />
    <linearGradient
       xlink:href="#linearGradient963"
       id="linearGradient2134"
       gradientUnits="userSpaceOnUse"
       x1="2.8571429"
       y1="510.28571"
       x2="500.57144"
       y2="1.7142825" />
    <linearGradient
       xlink:href="#linearGradient963"
       id="linearGradient2136"
       gradientUnits="userSpaceOnUse"
       x1="2.8571429"
       y1="510.28571"
       x2="500.57144"
       y2="1.7142825" />
    <linearGradient
       xlink:href="#linearGradient963"
       id="linearGradient2138"
       gradientUnits="userSpaceOnUse"
       x1="2.8571429"
       y1="510.28571"
       x2="500.57144"
       y2="1.7142825" />
    <linearGradient
       xlink:href="#linearGradient963"
       id="linearGradient2140"
       gradientUnits="userSpaceOnUse"
       x1="2.8571429"
       y1="510.28571"
       x2="500.57144"
       y2="1.7142825" />
    <linearGradient
       xlink:href="#linearGradient963"
       id="linearGradient2142"
       gradientUnits="userSpaceOnUse"
       x1="2.8571429"
       y1="510.28571"
       x2="500.57144"
       y2="1.7142825" />
    <linearGradient
       xlink:href="#linearGradient963"
       id="linearGradient2144"
       gradientUnits="userSpaceOnUse"
       x1="2.8571429"
       y1="510.28571"
       x2="500.57144"
       y2="1.7142825" />
    <linearGradient
       xlink:href="#linearGradient963"
       id="linearGradient2146"
       gradientUnits="userSpaceOnUse"
       x1="2.8571429"
       y1="510.28571"
       x2="500.57144"
       y2="1.7142825" />
    <linearGradient
       xlink:href="#linearGradient963"
       id="linearGradient2148"
       gradientUnits="userSpaceOnUse"
       x1="2.8571429"
       y1="510.28571"
       x2="500.57144"
       y2="1.7142825" />
    <linearGradient
       xlink:href="#linearGradient963"
       id="linearGradient2150"
       gradientUnits="userSpaceOnUse"
       x1="2.8571429"
       y1="510.28571"
       x2="500.57144"
       y2="1.7142825" />
    <linearGradient
       xlink:href="#linearGradient963"
       id="linearGradient2152"
       gradientUnits="userSpaceOnUse"
       x1="2.8571429"
       y1="510.28571"
       x2="500.57144"
       y2="1.7142825" />
    <linearGradient
       xlink:href="#linearGradient963"
       id="linearGradient2154"
       gradientUnits="userSpaceOnUse"
       x1="2.8571429"
       y1="510.28571"
       x2="500.57144"
       y2="1.7142825" />
    <linearGradient
       xlink:href="#linearGradient963"
       id="linearGradient2156"
       gradientUnits="userSpaceOnUse"
       x1="2.8571429"
       y1="510.28571"
       x2="500.57144"
       y2="1.7142825" />
    <linearGradient
       xlink:href="#linearGradient963"
       id="linearGradient2158"
       gradientUnits="userSpaceOnUse"
       x1="2.8571429"
       y1="510.28571"
       x2="500.57144"
       y2="1.7142825" />
    <linearGradient
       xlink:href="#linearGradient963"
       id="linearGradient2160"
       gradientUnits="userSpaceOnUse"
       x1="2.8571429"
       y1="510.28571"
       x2="500.57144"
       y2="1.7142825" />
    <linearGradient
       xlink:href="#linearGradient963"
       id="linearGradient2162"
       gradientUnits="userSpaceOnUse"
       x1="2.8571429"
       y1="510.28571"
       x2="500.57144"
       y2="1.7142825" />
    <linearGradient
       xlink:href="#linearGradient963"
       id="linearGradient2164"
       gradientUnits="userSpaceOnUse"
       x1="2.8571429"
       y1="510.28571"
       x2="500.57144"
       y2="1.7142825" />
    <linearGradient
       xlink:href="#linearGradient963"
       id="linearGradient2166"
       gradientUnits="userSpaceOnUse"
       x1="2.8571429"
       y1="510.28571"
       x2="500.57144"
       y2="1.7142825" />
    <linearGradient
       xlink:href="#linearGradient963"
       id="linearGradient3431"
       x1="-6.4507914"
       y1="81.64286"
       x2="151.59364"
       y2="81.64286"
       gradientUnits="userSpaceOnUse"
       gradientTransform="matrix(0.84693877,0,0,0.84693877,13.536444,15.853498)" />
    <linearGradient
       xlink:href="#linearGradient963"
       id="linearGradient3595"
       x1="18.347"
       y1="105.054"
       x2="191.759"
       y2="105.054"
       gradientUnits="userSpaceOnUse" />
    <linearGradient
       xlink:href="#linearGradient963"
       id="linearGradient3597"
       gradientUnits="userSpaceOnUse"
       x1="18.347"
       y1="105.054"
       x2="191.759"
       y2="105.054" />
    <linearGradient
       xlink:href="#linearGradient963"
       id="linearGradient3599"
       gradientUnits="userSpaceOnUse"
       x1="18.347"
       y1="105.054"
       x2="191.759"
       y2="105.054" />
    <linearGradient
       xlink:href="#linearGradient963"
       id="linearGradient3601"
       gradientUnits="userSpaceOnUse"
       x1="18.347"
       y1="105.054"
       x2="191.759"
       y2="105.054" />
    <linearGradient
       xlink:href="#linearGradient963"
       id="linearGradient3603"
       gradientUnits="userSpaceOnUse"
       x1="18.347"
       y1="105.054"
       x2="191.759"
       y2="105.054" />
    <linearGradient
       xlink:href="#linearGradient963"
       id="linearGradient3605"
       gradientUnits="userSpaceOnUse"
       x1="18.347"
       y1="105.054"
       x2="191.759"
       y2="105.054" />
    <linearGradient
       xlink:href="#linearGradient963"
       id="linearGradient3607"
       gradientUnits="userSpaceOnUse"
       x1="18.347"
       y1="105.054"
       x2="191.759"
       y2="105.054" />
    <linearGradient
       xlink:href="#linearGradient963"
       id="linearGradient3609"
       gradientUnits="userSpaceOnUse"
       x1="18.347"
       y1="105.054"
       x2="191.759"
       y2="105.054" />
    <linearGradient
       xlink:href="#linearGradient963"
       id="linearGradient3611"
       gradientUnits="userSpaceOnUse"
       x1="18.347"
       y1="105.054"
       x2="191.759"
       y2="105.054" />
    <linearGradient
       xlink:href="#linearGradient963"
       id="linearGradient3613"
       gradientUnits="userSpaceOnUse"
       x1="18.347"
       y1="105.054"
       x2="191.759"
       y2="105.054" />
    <linearGradient
       xlink:href="#linearGradient963"
       id="linearGradient3615"
       gradientUnits="userSpaceOnUse"
       x1="18.347"
       y1="105.054"
       x2="191.759"
       y2="105.054" />
    <linearGradient
       xlink:href="#linearGradient963"
       id="linearGradient3617"
       gradientUnits="userSpaceOnUse"
       x1="18.347"
       y1="105.054"
       x2="191.759"
       y2="105.054" />
    <linearGradient
       xlink:href="#linearGradient963"
       id="linearGradient3619"
       gradientUnits="userSpaceOnUse"
       x1="18.347"
       y1="105.054"
       x2="191.759"
       y2="105.054" />
    <linearGradient
       xlink:href="#linearGradient963"
       id="linearGradient3621"
       gradientUnits="userSpaceOnUse"
       x1="18.347"
       y1="105.054"
       x2="191.759"
       y2="105.054" />
    <linearGradient
       xlink:href="#linearGradient963"
       id="linearGradient3623"
       gradientUnits="userSpaceOnUse"
       x1="18.347"
       y1="105.054"
       x2="191.759"
       y2="105.054" />
    <linearGradient
       xlink:href="#linearGradient963"
       id="linearGradient3625"
       gradientUnits="userSpaceOnUse"
       x1="18.347"
       y1="105.054"
       x2="191.759"
       y2="105.054" />
    <linearGradient
       xlink:href="#linearGradient963"
       id="linearGradient3627"
       gradientUnits="userSpaceOnUse"
       x1="18.347"
       y1="105.054"
       x2="191.759"
       y2="105.054" />
    <linearGradient
       xlink:href="#linearGradient963"
       id="linearGradient3629"
       gradientUnits="userSpaceOnUse"
       x1="18.347"
       y1="105.054"
       x2="191.759"
       y2="105.054" />
    <linearGradient
       xlink:href="#linearGradient963"
       id="linearGradient1048"
       x1="0"
       y1="256"
       x2="469.33203"
       y2="256"
       gradientUnits="userSpaceOnUse" />
    <linearGradient
       xlink:href="#linearGradient963"
       id="linearGradient1096"
       gradientUnits="userSpaceOnUse"
       x1="24.164724"
       y1="230.39999"
       x2="436.63657"
       y2="230.39999" />
    <linearGradient
       xlink:href="#linearGradient963"
       id="linearGradient1098"
       gradientUnits="userSpaceOnUse"
       x1="24.164724"
       y1="230.39999"
       x2="436.63657"
       y2="230.39999" />
    <linearGradient
       xlink:href="#linearGradient963"
       id="linearGradient1100"
       gradientUnits="userSpaceOnUse"
       x1="24.164724"
       y1="230.39999"
       x2="436.63657"
       y2="230.39999" />
    <linearGradient
       xlink:href="#linearGradient963"
       id="linearGradient1102"
       gradientUnits="userSpaceOnUse"
       x1="24.164724"
       y1="230.39999"
       x2="436.63657"
       y2="230.39999" />
    <linearGradient
       xlink:href="#linearGradient963"
       id="linearGradient1104"
       gradientUnits="userSpaceOnUse"
       x1="24.164724"
       y1="230.39999"
       x2="436.63657"
       y2="230.39999" />
    <linearGradient
       xlink:href="#linearGradient963"
       id="linearGradient1106"
       gradientUnits="userSpaceOnUse"
       x1="24.164724"
       y1="230.39999"
       x2="436.63657"
       y2="230.39999" />
    <linearGradient
       xlink:href="#linearGradient963"
       id="linearGradient1108"
       gradientUnits="userSpaceOnUse"
       x1="24.164724"
       y1="230.39999"
       x2="436.63657"
       y2="230.39999" />
    <linearGradient
       xlink:href="#linearGradient963"
       id="linearGradient1110"
       gradientUnits="userSpaceOnUse"
       x1="24.164724"
       y1="230.39999"
       x2="436.63657"
       y2="230.39999" />
    <linearGradient
       xlink:href="#linearGradient963"
       id="linearGradient1112"
       gradientUnits="userSpaceOnUse"
       x1="24.164724"
       y1="230.39999"
       x2="436.63657"
       y2="230.39999" />
    <linearGradient
       xlink:href="#linearGradient963"
       id="linearGradient1114"
       gradientUnits="userSpaceOnUse"
       x1="24.164724"
       y1="230.39999"
       x2="436.63657"
       y2="230.39999" />
    <linearGradient
       xlink:href="#linearGradient963"
       id="linearGradient1116"
       gradientUnits="userSpaceOnUse"
       x1="24.164724"
       y1="230.39999"
       x2="436.63657"
       y2="230.39999" />
    <linearGradient
       xlink:href="#linearGradient963"
       id="linearGradient1118"
       gradientUnits="userSpaceOnUse"
       x1="24.164724"
       y1="230.39999"
       x2="436.63657"
       y2="230.39999" />
    <linearGradient
       xlink:href="#linearGradient963"
       id="linearGradient1120"
       gradientUnits="userSpaceOnUse"
       x1="24.164724"
       y1="230.39999"
       x2="436.63657"
       y2="230.39999" />
    <linearGradient
       xlink:href="#linearGradient963"
       id="linearGradient1122"
       gradientUnits="userSpaceOnUse"
       x1="24.164724"
       y1="230.39999"
       x2="436.63657"
       y2="230.39999" />
    <linearGradient
       xlink:href="#linearGradient963"
       id="linearGradient1124"
       gradientUnits="userSpaceOnUse"
       x1="24.164724"
       y1="230.39999"
       x2="436.63657"
       y2="230.39999" />
    <linearGradient
       xlink:href="#linearGradient963"
       id="linearGradient1126"
       gradientUnits="userSpaceOnUse"
       x1="24.164724"
       y1="230.39999"
       x2="436.63657"
       y2="230.39999" />
    <linearGradient
       xlink:href="#linearGradient963"
       id="linearGradient1128"
       gradientUnits="userSpaceOnUse"
       x1="24.164724"
       y1="230.39999"
       x2="436.63657"
       y2="230.39999" />
    <linearGradient
       xlink:href="#linearGradient963"
       id="linearGradient1130"
       gradientUnits="userSpaceOnUse"
       x1="24.164724"
       y1="230.39999"
       x2="436.63657"
       y2="230.39999" />
    <linearGradient
       xlink:href="#linearGradient963"
       id="linearGradient1132"
       gradientUnits="userSpaceOnUse"
       x1="24.164724"
       y1="230.39999"
       x2="436.63657"
       y2="230.39999" />
    <linearGradient
       xlink:href="#linearGradient963"
       id="linearGradient1134"
       gradientUnits="userSpaceOnUse"
       x1="24.164724"
       y1="230.39999"
       x2="436.63657"
       y2="230.39999" />
    <linearGradient
       xlink:href="#linearGradient963"
       id="linearGradient1136"
       gradientUnits="userSpaceOnUse"
       x1="24.164724"
       y1="230.39999"
       x2="436.63657"
       y2="230.39999" />
    <linearGradient
       xlink:href="#linearGradient963"
       id="linearGradient1138"
       gradientUnits="userSpaceOnUse"
       x1="24.164724"
       y1="230.39999"
       x2="436.63657"
       y2="230.39999" />
    <linearGradient
       xlink:href="#linearGradient963"
       id="linearGradient1140"
       gradientUnits="userSpaceOnUse"
       x1="0"
       y1="256"
       x2="469.33203"
       y2="256" />
    <linearGradient
       xlink:href="#linearGradient963"
       id="linearGradient1142"
       gradientUnits="userSpaceOnUse"
       x1="0"
       y1="256"
       x2="469.33203"
       y2="256" />
    <linearGradient
       xlink:href="#linearGradient963"
       id="linearGradient1144"
       gradientUnits="userSpaceOnUse"
       x1="0"
       y1="256"
       x2="469.33203"
       y2="256" />
    <linearGradient
       xlink:href="#linearGradient963"
       id="linearGradient1146"
       gradientUnits="userSpaceOnUse"
       x1="0"
       y1="256"
       x2="469.33203"
       y2="256" />
    <linearGradient
       xlink:href="#linearGradient963"
       id="linearGradient1148"
       gradientUnits="userSpaceOnUse"
       x1="0"
       y1="256"
       x2="469.33203"
       y2="256" />
    <linearGradient
       xlink:href="#linearGradient963"
       id="linearGradient1150"
       gradientUnits="userSpaceOnUse"
       x1="0"
       y1="256"
       x2="469.33203"
       y2="256" />
    <linearGradient
       xlink:href="#linearGradient963"
       id="linearGradient1152"
       gradientUnits="userSpaceOnUse"
       x1="0"
       y1="256"
       x2="469.33203"
       y2="256" />
    <linearGradient
       xlink:href="#linearGradient963"
       id="linearGradient1154"
       gradientUnits="userSpaceOnUse"
       x1="0"
       y1="256"
       x2="469.33203"
       y2="256" />
  </defs>
  <metadata
     id="metadata5">
    <rdf:RDF>
      <cc:Work
         rdf:about="">
        <dc:format>image/svg+xml</dc:format>
        <dc:type
           rdf:resource="http://purl.org/dc/dcmitype/StillImage" />
        <dc:title></dc:title>
      </cc:Work>
    </rdf:RDF>
  </metadata>
  <g
     id="layer1"
     style="display:inline">
    <g
       id="g71"
       transform="matrix(0.26458333,0,0,0.26458333,7.2666675,17.266668)"
       style="display:none;fill:url(#linearGradient967);fill-opacity:1">
      <g
         id="g14"
         style="fill:url(#linearGradient2136);fill-opacity:1">
        <g
           id="g12"
           style="fill:url(#linearGradient2134);fill-opacity:1">
          <path
             d="m 500.6,212.6 -59.9,-14.7 c -3.3,-10.5 -7.5,-20.7 -12.6,-30.6 l 30.6,-51 c 3.6,-6 2.7,-13.5 -2.1,-18.3 L 414,55.4 c -4.8,-4.8 -12.3,-5.7 -18.3,-2.1 l -51,30.6 C 334.8,78.8 324.6,74.6 314.1,71.3 L 299.7,11.4 C 297.9,4.8 291.9,0 285,0 h -60 c -6.9,0 -12.9,4.8 -14.7,11.4 l -14.4,59.9 c -10.5,3.3 -20.7,7.5 -30.6,12.6 l -51,-30.6 c -6,-3.6 -13.5,-2.7 -18.3,2.1 L 53.4,98 c -4.8,4.8 -5.7,12.3 -2.1,18.3 l 30.6,51 c -5.1,9.9 -9.3,20.1 -12.6,30.6 L 11.4,212.6 C 4.8,214.1 0,220.1 0,227 v 60 c 0,6.9 4.8,12.9 11.4,14.4 l 57.9,14.7 c 3.3,10.5 7.5,20.7 12.6,30.6 l -30.6,51 c -3.6,6 -2.7,13.5 2.1,18.3 L 96,458.6 c 4.8,4.8 12.3,5.7 18.3,2.1 l 51,-30.6 c 9.9,5.1 20.1,9.3 30.6,12.6 l 14.4,57.9 c 1.8,6.6 7.8,11.4 14.7,11.4 h 60 c 6.9,0 12.9,-4.8 14.7,-11.4 l 14.4,-57.9 c 10.5,-3.3 20.7,-7.5 30.6,-12.6 l 51,30.6 c 6,3.6 13.5,2.7 18.3,-2.1 L 456.6,416 c 4.8,-4.8 5.7,-12.3 2.1,-18.3 l -30.6,-51 c 5.1,-9.9 9.3,-20.1 12.6,-30.6 l 59.9,-14.7 c 6.6,-1.5 11.4,-7.5 11.4,-14.4 v -60 c 0,-6.9 -4.8,-12.9 -11.4,-14.4 z M 255,332 c -41.4,0 -75,-33.6 -75,-75 0,-41.4 33.6,-75 75,-75 41.4,0 75,33.6 75,75 0,41.4 -33.6,75 -75,75 z"
             id="path10"
             style="fill:url(#linearGradient2132);fill-opacity:1" />
        </g>
      </g>
      <g
         id="g16"
         style="fill:url(#linearGradient2138);fill-opacity:1" />
      <g
         id="g18"
         style="fill:url(#linearGradient2140);fill-opacity:1" />
      <g
         id="g20"
         style="fill:url(#linearGradient2142);fill-opacity:1" />
      <g
         id="g22"
         style="fill:url(#linearGradient2144);fill-opacity:1" />
      <g
         id="g24"
         style="fill:url(#linearGradient2146);fill-opacity:1" />
      <g
         id="g26"
         style="fill:url(#linearGradient2148);fill-opacity:1" />
      <g
         id="g28"
         style="fill:url(#linearGradient2150);fill-opacity:1" />
      <g
         id="g30"
         style="fill:url(#linearGradient2152);fill-opacity:1" />
      <g
         id="g32"
         style="fill:url(#linearGradient2154);fill-opacity:1" />
      <g
         id="g34"
         style="fill:url(#linearGradient2156);fill-opacity:1" />
      <g
         id="g36"
         style="fill:url(#linearGradient2158);fill-opacity:1" />
      <g
         id="g38"
         style="fill:url(#linearGradient2160);fill-opacity:1" />
      <g
         id="g40"
         style="fill:url(#linearGradient2162);fill-opacity:1" />
      <g
         id="g42"
         style="fill:url(#linearGradient2164);fill-opacity:1" />
      <g
         id="g44"
         style="fill:url(#linearGradient2166);fill-opacity:1" />
    </g>
    <g
       id="g1131"
       transform="matrix(0.26458333,0,0,0.26458333,7.2667667,17.266668)"
       style="display:none;fill:url(#linearGradient1139);fill-opacity:1">
      <g
         id="g1065"
         style="fill:url(#linearGradient1163);fill-opacity:1">
        <g
           id="g1063"
           style="fill:url(#linearGradient1161);fill-opacity:1">
          <path
             d="M 508.177,245.995 C 503.607,240.897 393.682,121 256,121 118.318,121 8.394,240.897 3.823,245.995 c -5.098,5.698 -5.098,14.312 0,20.01 C 8.394,271.103 118.32,391 256,391 c 137.68,0 247.606,-119.897 252.177,-124.995 5.097,-5.698 5.097,-14.312 0,-20.01 z M 256,361 c -57.891,0 -105,-47.109 -105,-105 0,-57.891 47.109,-105 105,-105 57.891,0 105,47.109 105,105 0,57.891 -47.109,105 -105,105 z"
             id="path1061"
             style="fill:url(#linearGradient1159);fill-opacity:1" />
        </g>
      </g>
      <g
         id="g1071"
         style="fill:url(#linearGradient1169);fill-opacity:1">
        <g
           id="g1069"
           style="fill:url(#linearGradient1167);fill-opacity:1">
          <path
             d="m 271,226 c 0,-15.09 7.491,-28.365 18.887,-36.53 C 279.661,184.235 268.255,181 256,181 c -41.353,0 -75,33.647 -75,75 0,41.353 33.647,75 75,75 37.024,0 67.668,-27.034 73.722,-62.358 C 299.516,278.367 271,255.522 271,226 Z"
             id="path1067"
             style="fill:url(#linearGradient1165);fill-opacity:1" />
        </g>
      </g>
      <g
         id="g1073"
         style="fill:url(#linearGradient1171);fill-opacity:1" />
      <g
         id="g1075"
         style="fill:url(#linearGradient1173);fill-opacity:1" />
      <g
         id="g1077"
         style="fill:url(#linearGradient1175);fill-opacity:1" />
      <g
         id="g1079"
         style="fill:url(#linearGradient1177);fill-opacity:1" />
      <g
         id="g1081"
         style="fill:url(#linearGradient1179);fill-opacity:1" />
      <g
         id="g1083"
         style="fill:url(#linearGradient1181);fill-opacity:1" />
      <g
         id="g1085"
         style="fill:url(#linearGradient1183);fill-opacity:1" />
      <g
         id="g1087"
         style="fill:url(#linearGradient1185);fill-opacity:1" />
      <g
         id="g1089"
         style="fill:url(#linearGradient1187);fill-opacity:1" />
      <g
         id="g1091"
         style="fill:url(#linearGradient1189);fill-opacity:1" />
      <g
         id="g1093"
         style="fill:url(#linearGradient1191);fill-opacity:1" />
      <g
         id="g1095"
         style="fill:url(#linearGradient1193);fill-opacity:1" />
      <g
         id="g1097"
         style="fill:url(#linearGradient1195);fill-opacity:1" />
      <g
         id="g1099"
         style="fill:url(#linearGradient1197);fill-opacity:1" />
      <g
         id="g1101"
         style="fill:url(#linearGradient1199);fill-opacity:1" />
    </g>
    <g
       id="use1509"
       transform="translate(-38.041083,-47.797059)"
       style="display:none">
      <g
         id="g1092"
         transform="matrix(0.26458333,0,0,0.26458333,52.080911,71.83706)"
         style="fill:url(#linearGradient1138);fill-opacity:1">
        <g
           id="g1054"
           style="fill:url(#linearGradient1100);fill-opacity:1">
          <g
             id="g1052"
             style="fill:url(#linearGradient1098);fill-opacity:1">
            <path
               d="m 230.432,0 c -65.829,0 -119.641,53.812 -119.641,119.641 0,65.829 53.812,119.641 119.641,119.641 65.829,0 119.641,-53.812 119.641,-119.641 C 350.073,53.812 296.261,0 230.432,0 Z"
               id="path1050"
               style="fill:url(#linearGradient1096);fill-opacity:1" />
          </g>
        </g>
        <g
           id="g1060"
           style="fill:url(#linearGradient1106);fill-opacity:1">
          <g
             id="g1058"
             style="fill:url(#linearGradient1104);fill-opacity:1">
            <path
               d="m 435.755,334.89 c -3.135,-7.837 -7.314,-15.151 -12.016,-21.943 -24.033,-35.527 -61.126,-59.037 -102.922,-64.784 -5.224,-0.522 -10.971,0.522 -15.151,3.657 -21.943,16.196 -48.065,24.555 -75.233,24.555 -27.168,0 -53.29,-8.359 -75.233,-24.555 -4.18,-3.135 -9.927,-4.702 -15.151,-3.657 -41.796,5.747 -79.412,29.257 -102.922,64.784 -4.702,6.792 -8.882,14.629 -12.016,21.943 -1.567,3.135 -1.045,6.792 0.522,9.927 4.18,7.314 9.404,14.629 14.106,20.898 7.314,9.927 15.151,18.808 24.033,27.167 7.314,7.314 15.673,14.106 24.033,20.898 41.273,30.825 90.906,47.02 142.106,47.02 51.2,0 100.833,-16.196 142.106,-47.02 8.359,-6.269 16.718,-13.584 24.033,-20.898 8.359,-8.359 16.718,-17.241 24.033,-27.167 5.224,-6.792 9.927,-13.584 14.106,-20.898 2.611,-3.135 3.133,-6.793 1.566,-9.927 z"
               id="path1056"
               style="fill:url(#linearGradient1102);fill-opacity:1" />
          </g>
        </g>
        <g
           id="g1062"
           style="fill:url(#linearGradient1108);fill-opacity:1" />
        <g
           id="g1064"
           style="fill:url(#linearGradient1110);fill-opacity:1" />
        <g
           id="g1066"
           style="fill:url(#linearGradient1112);fill-opacity:1" />
        <g
           id="g1068"
           style="fill:url(#linearGradient1114);fill-opacity:1" />
        <g
           id="g1070"
           style="fill:url(#linearGradient1116);fill-opacity:1" />
        <g
           id="g1072"
           style="fill:url(#linearGradient1118);fill-opacity:1" />
        <g
           id="g1074"
           style="fill:url(#linearGradient1120);fill-opacity:1" />
        <g
           id="g1076"
           style="fill:url(#linearGradient1122);fill-opacity:1" />
        <g
           id="g1078"
           style="fill:url(#linearGradient1124);fill-opacity:1" />
        <g
           id="g1080"
           style="fill:url(#linearGradient1126);fill-opacity:1" />
        <g
           id="g1082"
           style="fill:url(#linearGradient1128);fill-opacity:1" />
        <g
           id="g1084"
           style="fill:url(#linearGradient1130);fill-opacity:1" />
        <g
           id="g1086"
           style="fill:url(#linearGradient1132);fill-opacity:1" />
        <g
           id="g1088"
           style="fill:url(#linearGradient1134);fill-opacity:1" />
        <g
           id="g1090"
           style="fill:url(#linearGradient1136);fill-opacity:1" />
      </g>
    </g>
    <path
       d="M 129.97574,73.048752 H 89.341496 c -1.320005,0 -2.390249,-1.070243 -2.390249,-2.390249 V 30.024264 c 0,-6.600029 -5.351217,-11.951247 -11.951246,-11.951247 -6.60003,0 -11.951247,5.351218 -11.951247,11.951247 v 40.634239 c 0,1.320006 -1.070244,2.390249 -2.390249,2.390249 h -40.63424 c -6.600029,0 -11.9512464,5.351218 -11.9512464,11.951247 0,6.600029 5.3512174,11.951246 11.9512464,11.951246 h 40.63424 c 1.320005,0 2.390249,1.070244 2.390249,2.39025 v 40.634245 c 0,6.60002 5.351217,11.95124 11.951247,11.95124 6.600029,0 11.951246,-5.35122 11.951246,-11.95124 V 99.341495 c 0,-1.320006 1.070244,-2.39025 2.390249,-2.39025 h 40.634244 c 6.60002,0 11.95124,-5.351217 11.95124,-11.951246 0,-6.600029 -5.35122,-11.951247 -11.95124,-11.951247 z m 0,0"
       id="path3414"
       style="display:none;opacity:1;fill:url(#linearGradient3431);fill-opacity:1;stroke-width:0.298781" />
    <g
       id="g3587"
       transform="matrix(0.57289975,0,0,0.57289975,14.815163,24.81459)"
       style="display:none;fill:url(#linearGradient3595);fill-opacity:1">
      <g
         id="g3531"
         style="fill:url(#linearGradient3599);fill-opacity:1">
        <path
           style="fill:url(#linearGradient3597);fill-opacity:1"
           d="M 168.506,0 H 80.235 C 67.413,0 56.981,10.432 56.981,23.254 v 2.854 h -15.38 c -12.822,0 -23.254,10.432 -23.254,23.254 v 137.492 c 0,12.822 10.432,23.254 23.254,23.254 h 88.271 c 12.822,0 23.253,-10.432 23.253,-23.254 V 184 h 15.38 c 12.822,0 23.254,-10.432 23.254,-23.254 V 23.254 C 191.76,10.432 181.328,0 168.506,0 Z m -30.38,186.854 c 0,4.551 -3.703,8.254 -8.253,8.254 H 41.601 c -4.551,0 -8.254,-3.703 -8.254,-8.254 V 49.361 c 0,-4.551 3.703,-8.254 8.254,-8.254 h 88.271 c 4.551,0 8.253,3.703 8.253,8.254 v 137.493 z m 38.634,-26.108 c 0,4.551 -3.703,8.254 -8.254,8.254 h -15.38 V 49.361 c 0,-12.822 -10.432,-23.254 -23.253,-23.254 H 71.981 v -2.854 c 0,-4.551 3.703,-8.254 8.254,-8.254 h 88.271 c 4.551,0 8.254,3.703 8.254,8.254 z"
           id="path3529" />
      </g>
      <g
         id="g3533"
         style="fill:url(#linearGradient3601);fill-opacity:1" />
      <g
         id="g3535"
         style="fill:url(#linearGradient3603);fill-opacity:1" />
      <g
         id="g3537"
         style="fill:url(#linearGradient3605);fill-opacity:1" />
      <g
         id="g3539"
         style="fill:url(#linearGradient3607);fill-opacity:1" />
      <g
         id="g3541"
         style="fill:url(#linearGradient3609);fill-opacity:1" />
      <g
         id="g3543"
         style="fill:url(#linearGradient3611);fill-opacity:1" />
      <g
         id="g3545"
         style="fill:url(#linearGradient3613);fill-opacity:1" />
      <g
         id="g3547"
         style="fill:url(#linearGradient3615);fill-opacity:1" />
      <g
         id="g3549"
         style="fill:url(#linearGradient3617);fill-opacity:1" />
      <g
         id="g3551"
         style="fill:url(#linearGradient3619);fill-opacity:1" />
      <g
         id="g3553"
         style="fill:url(#linearGradient3621);fill-opacity:1" />
      <g
         id="g3555"
         style="fill:url(#linearGradient3623);fill-opacity:1" />
      <g
         id="g3557"
         style="fill:url(#linearGradient3625);fill-opacity:1" />
      <g
         id="g3559"
         style="fill:url(#linearGradient3627);fill-opacity:1" />
      <g
         id="g3561"
         style="fill:url(#linearGradient3629);fill-opacity:1" />
    </g>
    <g
       id="g1040"
       transform="matrix(0.2553308,0,0,0.2553308,15.082539,19.635315)"
       style="display:inline;fill:url(#linearGradient1048);fill-opacity:1">
      <path
         d="m 453.33203,85.332031 c 0,38.292969 -31.03906,69.335939 -69.33203,69.335939 -38.29297,0 -69.33203,-31.04297 -69.33203,-69.335939 C 314.66797,47.042969 345.70703,16 384,16 c 38.29297,0 69.33203,31.042969 69.33203,69.332031 z m 0,0"
         id="path1008"
         style="fill:url(#linearGradient1140);fill-opacity:1" />
      <path
         d="m 384,170.66797 c -47.0625,0 -85.33203,-38.27344 -85.33203,-85.335939 C 298.66797,38.273438 336.9375,0 384,0 c 47.0625,0 85.33203,38.273438 85.33203,85.332031 0,47.062499 -38.26953,85.335939 -85.33203,85.335939 z M 384,32 c -29.41797,0 -53.33203,23.9375 -53.33203,53.332031 0,29.398439 23.91406,53.335939 53.33203,53.335939 29.41797,0 53.33203,-23.9375 53.33203,-53.335939 C 437.33203,55.9375 413.41797,32 384,32 Z m 0,0"
         id="path1010"
         style="fill:url(#linearGradient1142);fill-opacity:1" />
      <path
         d="M 453.33203,426.66797 C 453.33203,464.95703 422.29297,496 384,496 c -38.29297,0 -69.33203,-31.04297 -69.33203,-69.33203 0,-38.29297 31.03906,-69.33594 69.33203,-69.33594 38.29297,0 69.33203,31.04297 69.33203,69.33594 z m 0,0"
         id="path1012"
         style="fill:url(#linearGradient1144);fill-opacity:1" />
      <path
         d="m 384,512 c -47.0625,0 -85.33203,-38.27344 -85.33203,-85.33203 0,-47.0625 38.26953,-85.33594 85.33203,-85.33594 47.0625,0 85.33203,38.27344 85.33203,85.33594 C 469.33203,473.72656 431.0625,512 384,512 Z m 0,-138.66797 c -29.41797,0 -53.33203,23.9375 -53.33203,53.33594 C 330.66797,456.0625 354.58203,480 384,480 c 29.41797,0 53.33203,-23.9375 53.33203,-53.33203 0,-29.39844 -23.91406,-53.33594 -53.33203,-53.33594 z m 0,0"
         id="path1014"
         style="fill:url(#linearGradient1146);fill-opacity:1" />
      <path
         d="m 154.66797,256 c 0,38.29297 -31.04297,69.33203 -69.335939,69.33203 C 47.042969,325.33203 16,294.29297 16,256 c 0,-38.29297 31.042969,-69.33203 69.332031,-69.33203 38.292969,0 69.335939,31.03906 69.335939,69.33203 z m 0,0"
         id="path1016"
         style="fill:url(#linearGradient1148);fill-opacity:1" />
      <path
         d="M 85.332031,341.33203 C 38.273438,341.33203 0,303.0625 0,256 c 0,-47.0625 38.273438,-85.33203 85.332031,-85.33203 47.062499,0 85.335939,38.26953 85.335939,85.33203 0,47.0625 -38.27344,85.33203 -85.335939,85.33203 z m 0,-138.66406 C 55.914062,202.66797 32,226.60156 32,256 c 0,29.39844 23.914062,53.33203 53.332031,53.33203 29.421879,0 53.335939,-23.93359 53.335939,-53.33203 0,-29.39844 -23.91406,-53.33203 -53.335939,-53.33203 z m 0,0"
         id="path1018"
         style="fill:url(#linearGradient1150);fill-opacity:1" />
      <path
         d="m 135.70312,245.76172 c -7.42578,0 -14.63671,-3.86328 -18.56249,-10.77344 -5.82422,-10.21875 -2.23829,-23.25391 7.98046,-29.10156 L 323.07031,93.035156 c 10.21875,-5.867187 23.25391,-2.28125 29.10156,7.976564 5.82422,10.21875 2.23829,23.25391 -7.98046,29.10156 L 146.23828,242.96484 c -3.32812,1.89844 -6.95312,2.79688 -10.53516,2.79688 z m 0,0"
         id="path1020"
         style="fill:url(#linearGradient1152);fill-opacity:1" />
      <path
         d="m 333.63281,421.76172 c -3.58594,0 -7.21094,-0.89844 -10.53906,-2.79688 L 125.14063,306.11328 c -10.21875,-5.82422 -13.80079,-18.85937 -7.97657,-29.10156 5.80078,-10.23828 18.85547,-13.84375 29.09766,-7.97656 l 197.95312,112.85156 c 10.21875,5.82422 13.80078,18.85937 7.97657,29.10156 -3.94532,6.91016 -11.15625,10.77344 -18.5586,10.77344 z m 0,0"
         id="path1022"
         style="fill:url(#linearGradient1154);fill-opacity:1" />
    </g>
  </g>
</svg>
